<?xml version="1.0" encoding="UTF-8" standalone="no"?>
<!DOCTYPE svg PUBLIC "-//W3C//DTD SVG 20010904//EN"
              "http://www.w3.org/TR/2001/REC-SVG-20010904/DTD/svg10.dtd">

<svg xmlns="http://www.w3.org/2000/svg"
     width="135.486mm" height="135.486mm"
     viewBox="0 0 512 512">
  <path id="Selection #2"
        fill="#34d399"
        d="M 26.00,362.52
           C 26.00,362.52 69.00,362.00 69.00,362.00
             69.00,362.00 150.00,362.00 150.00,362.00
             150.00,362.00 403.00,362.00 403.00,362.00
             403.00,362.00 478.00,362.00 478.00,362.00
             489.81,362.02 498.29,365.92 505.98,375.09
             508.06,377.56 510.42,380.89 511.35,384.00
             512.11,386.50 512.00,389.40 512.00,392.00
             512.00,392.00 512.00,408.00 512.00,408.00
             511.91,414.84 510.31,417.67 505.98,422.96
             496.62,434.42 484.07,436.98 470.00,437.00
             470.00,437.00 108.00,437.00 108.00,437.00
             108.00,437.00 57.00,437.00 57.00,437.00
             47.63,437.00 33.86,437.53 25.00,435.24
             15.31,432.74 3.61,423.83 0.65,414.00
             -0.11,411.50 0.00,408.60 0.00,406.00
             -0.01,401.44 -0.42,387.53 0.65,384.00
             3.83,373.45 15.85,365.24 26.00,362.52 Z" />
</svg>
