<?xml version="1.0" encoding="UTF-8" standalone="no"?>
<!DOCTYPE svg PUBLIC "-//W3C//DTD SVG 20010904//EN"
              "http://www.w3.org/TR/2001/REC-SVG-20010904/DTD/svg10.dtd">

<svg xmlns="http://www.w3.org/2000/svg"
     width="1.77778in" height="1.77778in"
     viewBox="0 0 128 128">
  <path id="Selection"
        fill="#34d399"
        d="M 5.04,0.74
           C 10.83,-0.69 29.85,0.00 37.00,0.00
             37.00,0.00 101.00,0.00 101.00,0.00
             107.02,0.00 122.56,-1.68 126.26,3.23
             128.29,5.91 127.99,9.81 128.00,13.00
             128.00,13.00 128.00,100.00 128.00,100.00
             128.00,106.12 129.71,122.53 124.77,126.26
             122.09,128.29 118.19,127.99 115.00,128.00
             115.00,128.00 28.00,128.00 28.00,128.00
             21.88,128.00 5.47,129.71 1.74,124.77
             -0.29,122.09 0.01,118.19 0.00,115.00
             0.00,115.00 0.00,30.00 0.00,30.00
             0.00,25.48 -0.52,8.13 0.74,5.04
             1.79,2.45 2.81,2.04 5.04,0.74 Z
           M 27.00,18.38
           C 12.14,22.48 18.28,40.43 30.00,38.62
             42.02,36.76 42.12,17.87 27.00,18.38 Z
           M 109.00,109.00
           C 109.00,97.53 110.22,68.34 106.03,59.00
             100.85,47.44 85.83,43.94 75.00,49.38
             70.63,51.57 69.10,53.41 66.00,57.00
             66.00,57.00 66.00,48.00 66.00,48.00
             66.00,48.00 48.00,48.00 48.00,48.00
             48.00,48.00 48.00,109.00 48.00,109.00
             48.00,109.00 67.00,109.00 67.00,109.00
             67.00,109.00 67.00,84.00 67.00,84.00
             67.00,79.68 66.50,73.86 68.45,70.00
             73.99,59.07 89.78,60.06 90.00,76.00
             90.00,76.00 90.00,109.00 90.00,109.00
             90.00,109.00 109.00,109.00 109.00,109.00 Z
           M 38.00,48.00
           C 38.00,48.00 19.00,48.00 19.00,48.00
             19.00,48.00 19.00,109.00 19.00,109.00
             19.00,109.00 38.00,109.00 38.00,109.00
             38.00,109.00 38.00,48.00 38.00,48.00 Z" />
</svg>
