<?xml version="1.0" encoding="UTF-8" standalone="no"?>
<!DOCTYPE svg PUBLIC "-//W3C//DTD SVG 20010904//EN"
              "http://www.w3.org/TR/2001/REC-SVG-20010904/DTD/svg10.dtd">

<svg xmlns="http://www.w3.org/2000/svg"
     width="135.486mm" height="135.486mm"
     viewBox="0 0 512 512">
  <path id="Selection"
        fill="#34d399"
        d="M 34.00,75.08
           C 34.00,75.08 77.00,75.08 77.00,75.08
             77.00,75.08 158.00,75.08 158.00,75.08
             158.00,75.08 404.00,75.08 404.00,75.08
             404.00,75.08 455.00,75.08 455.00,75.08
             464.37,75.00 478.14,74.47 487.00,76.76
             496.82,79.29 508.35,88.02 511.35,98.00
             512.11,100.50 512.00,103.40 512.00,106.00
             512.00,106.00 512.00,121.00 512.00,121.00
             511.78,138.62 494.32,149.97 478.00,150.00
             478.00,150.00 112.00,150.00 112.00,150.00
             112.00,150.00 34.00,150.00 34.00,150.00
             22.19,149.98 13.71,146.08 6.02,136.91
             3.94,134.44 1.58,131.11 0.65,128.00
             -0.11,125.50 0.00,122.60 0.00,120.00
             0.00,120.00 0.00,104.00 0.00,104.00
             0.18,90.93 12.12,80.54 24.00,77.04
             24.00,77.04 34.00,75.08 34.00,75.08 Z
           M 26.00,219.52
           C 26.00,219.52 69.00,219.00 69.00,219.00
             69.00,219.00 150.00,219.00 150.00,219.00
             150.00,219.00 403.00,219.00 403.00,219.00
             403.00,219.00 478.00,219.00 478.00,219.00
             491.71,219.02 507.29,226.88 511.36,241.00
             512.11,243.57 512.00,246.35 512.00,249.00
             512.00,249.00 512.00,265.00 512.00,265.00
             511.76,282.41 493.83,292.98 478.00,293.00
             478.00,293.00 112.00,293.00 112.00,293.00
             112.00,293.00 34.00,293.00 34.00,293.00
             20.29,292.98 4.71,285.12 0.64,271.00
             -0.11,268.43 0.00,265.65 0.00,263.00
             0.00,263.00 0.00,249.00 0.00,249.00
             0.03,232.93 11.26,223.48 26.00,219.52 Z
           M 26.00,362.52
           C 26.00,362.52 69.00,362.00 69.00,362.00
             69.00,362.00 150.00,362.00 150.00,362.00
             150.00,362.00 403.00,362.00 403.00,362.00
             403.00,362.00 478.00,362.00 478.00,362.00
             489.81,362.02 498.29,365.92 505.98,375.09
             508.06,377.56 510.42,380.89 511.35,384.00
             512.11,386.50 512.00,389.40 512.00,392.00
             512.00,392.00 512.00,408.00 512.00,408.00
             511.91,414.84 510.31,417.67 505.98,422.96
             496.62,434.42 484.07,436.98 470.00,437.00
             470.00,437.00 108.00,437.00 108.00,437.00
             108.00,437.00 57.00,437.00 57.00,437.00
             47.63,437.00 33.86,437.53 25.00,435.24
             15.31,432.74 3.61,423.83 0.65,414.00
             -0.11,411.50 0.00,408.60 0.00,406.00
             -0.01,401.44 -0.42,387.53 0.65,384.00
             3.83,373.45 15.85,365.24 26.00,362.52 Z" />
</svg>
