<?xml version="1.0" encoding="UTF-8" standalone="no"?>
<!DOCTYPE svg PUBLIC "-//W3C//DTD SVG 20010904//EN"
              "http://www.w3.org/TR/2001/REC-SVG-20010904/DTD/svg10.dtd">

<svg xmlns="http://www.w3.org/2000/svg"
     width="135.486mm" height="135.486mm"
     viewBox="0 0 512 512">
  <path id="Selection #1"
        fill="#34d399"
        d="M 26.00,219.52
           C 26.00,219.52 69.00,219.00 69.00,219.00
             69.00,219.00 150.00,219.00 150.00,219.00
             150.00,219.00 403.00,219.00 403.00,219.00
             403.00,219.00 478.00,219.00 478.00,219.00
             491.71,219.02 507.29,226.88 511.36,241.00
             512.11,243.57 512.00,246.35 512.00,249.00
             512.00,249.00 512.00,265.00 512.00,265.00
             511.76,282.41 493.83,292.98 478.00,293.00
             478.00,293.00 112.00,293.00 112.00,293.00
             112.00,293.00 34.00,293.00 34.00,293.00
             20.29,292.98 4.71,285.12 0.64,271.00
             -0.11,268.43 0.00,265.65 0.00,263.00
             0.00,263.00 0.00,249.00 0.00,249.00
             0.03,232.93 11.26,223.48 26.00,219.52 Z" />
</svg>
