<?xml version="1.0" encoding="UTF-8" standalone="no"?>
<!DOCTYPE svg PUBLIC "-//W3C//DTD SVG 20010904//EN"
              "http://www.w3.org/TR/2001/REC-SVG-20010904/DTD/svg10.dtd">

<svg xmlns="http://www.w3.org/2000/svg"
     width="14.2222in" height="14.2222in"
     viewBox="0 0 1024 1024">
  <path id="Selection"
        fill="#38E4AE" stroke="none"
        d="M 540.00,37.99
           C 540.00,37.99 596.00,61.15 596.00,61.15
             596.00,61.15 662.00,88.42 662.00,88.42
             662.00,88.42 768.00,132.40 768.00,132.40
             768.00,132.40 832.00,158.85 832.00,158.85
             836.92,160.95 853.50,166.91 856.19,170.27
             856.19,170.27 864.85,190.00 864.85,190.00
             864.85,190.00 883.42,235.00 883.42,235.00
             883.42,235.00 941.80,376.00 941.80,376.00
             941.80,376.00 981.60,472.00 981.60,472.00
             981.60,472.00 992.80,499.00 992.80,499.00
             993.96,501.86 997.02,508.31 997.10,511.00
             997.19,514.27 993.68,521.74 992.28,525.00
             992.28,525.00 981.01,552.00 981.01,552.00
             981.01,552.00 939.60,652.00 939.60,652.00
             939.60,652.00 880.42,795.00 880.42,795.00
             880.42,795.00 863.42,836.00 863.42,836.00
             863.42,836.00 855.19,854.73 855.19,854.73
             852.48,858.12 836.86,863.63 832.00,865.72
             832.00,865.72 771.00,890.99 771.00,890.99
             771.00,890.99 594.00,964.28 594.00,964.28
             594.00,964.28 537.00,987.80 537.00,987.80
             532.70,989.53 516.27,997.00 513.00,997.10
             509.46,997.20 494.25,990.36 490.00,988.58
             490.00,988.58 439.00,967.40 439.00,967.40
             439.00,967.40 345.00,928.42 345.00,928.42
             345.00,928.42 248.00,888.28 248.00,888.28
             248.00,888.28 190.00,864.28 190.00,864.28
             185.23,862.23 170.53,857.13 167.81,853.73
             167.81,853.73 159.58,835.00 159.58,835.00
             159.58,835.00 141.40,791.00 141.40,791.00
             141.40,791.00 87.58,661.00 87.58,661.00
             87.58,661.00 42.40,552.00 42.40,552.00
             42.40,552.00 30.80,524.00 30.80,524.00
             29.35,520.38 26.49,514.83 27.11,511.00
             27.11,511.00 37.99,484.00 37.99,484.00
             37.99,484.00 61.58,427.00 61.58,427.00
             61.58,427.00 131.15,259.00 131.15,259.00
             131.15,259.00 156.80,197.00 156.80,197.00
             156.80,197.00 164.72,178.00 164.72,178.00
             165.90,175.25 167.44,170.65 169.50,168.64
             171.57,166.60 176.24,164.91 179.00,163.72
             179.00,163.72 199.00,155.55 199.00,155.55
             199.00,155.55 264.00,128.58 264.00,128.58
             264.00,128.58 432.00,58.99 432.00,58.99
             432.00,58.99 486.00,36.60 486.00,36.60
             492.13,34.15 505.39,27.83 511.00,26.90
             517.14,27.56 533.32,35.23 540.00,37.99 Z
           M 431.42,508.00
           C 431.42,508.00 413.31,474.00 413.31,474.00
             413.31,474.00 389.69,429.00 389.69,429.00
             389.69,429.00 354.74,363.00 354.74,363.00
             354.74,363.00 334.58,325.00 334.58,325.00
             327.51,312.46 329.65,312.02 320.00,312.00
             320.00,312.00 233.00,312.00 233.00,312.00
             233.00,312.00 233.00,639.00 233.00,639.00
             233.00,639.00 313.00,639.00 313.00,639.00
             313.00,639.00 313.00,487.00 313.00,487.00
             313.00,487.00 313.00,441.00 313.00,441.00
             313.00,441.00 314.00,416.00 314.00,416.00
             315.82,422.37 318.78,426.26 321.74,432.00
             321.74,432.00 339.74,466.00 339.74,466.00
             339.74,466.00 404.25,588.00 404.25,588.00
             404.25,588.00 423.78,625.00 423.78,625.00
             430.29,637.35 429.53,638.98 439.00,639.00
             439.00,639.00 526.00,639.00 526.00,639.00
             526.00,639.00 526.00,483.00 526.00,483.00
             526.00,483.00 632.00,483.00 632.00,483.00
             632.00,483.00 632.00,746.00 632.00,746.00
             632.00,746.00 717.00,746.00 717.00,746.00
             717.00,746.00 717.00,483.00 717.00,483.00
             717.00,483.00 825.00,483.00 825.00,483.00
             825.00,483.00 825.00,419.00 825.00,419.00
             825.00,419.00 526.00,419.00 526.00,419.00
             526.00,419.00 526.00,312.00 526.00,312.00
             526.00,312.00 446.00,312.00 446.00,312.00
             446.00,312.00 446.00,464.00 446.00,464.00
             446.00,464.00 446.00,510.00 446.00,510.00
             446.00,510.00 445.00,535.00 445.00,535.00
             443.54,529.90 434.50,513.45 431.42,508.00 Z" />
</svg>
