<?xml version="1.0" encoding="UTF-8" standalone="no"?>
<!DOCTYPE svg PUBLIC "-//W3C//DTD SVG 20010904//EN"
              "http://www.w3.org/TR/2001/REC-SVG-20010904/DTD/svg10.dtd">

<svg xmlns="http://www.w3.org/2000/svg"
     width="7.11111in" height="7.11111in"
     viewBox="0 0 512 512">
  <path id="Selection"
        fill="#46FFD9"
        d="M 173.00,126.00
           C 173.30,116.60 184.29,108.92 193.00,107.71
             193.00,107.71 204.00,107.71 204.00,107.71
             211.05,108.22 216.27,112.10 220.71,117.32
             222.47,119.40 223.97,122.66 226.21,123.98
             228.30,125.21 231.62,125.00 234.00,125.19
             234.00,125.19 260.00,125.19 260.00,125.19
             260.00,125.19 273.00,125.19 273.00,125.19
             273.00,125.19 283.00,125.19 283.00,125.19
             288.99,125.19 300.96,127.42 303.00,120.00
             308.03,115.18 311.50,110.24 319.00,108.72
             319.00,108.72 328.00,107.35 328.00,107.35
             341.91,107.10 352.55,117.97 355.33,131.00
             357.54,141.38 351.41,161.41 339.00,162.00
             336.73,165.00 334.09,165.04 332.74,168.13
             331.86,170.14 332.00,173.77 332.00,176.00
             332.00,176.00 332.00,201.00 332.00,201.00
             332.00,201.00 332.69,216.91 332.69,216.91
             331.19,222.56 321.72,224.84 321.36,232.00
             321.06,237.68 326.99,239.52 330.00,245.00
             330.00,245.00 333.00,247.00 333.00,247.00
             333.00,247.00 335.00,246.00 335.00,246.00
             335.00,246.00 337.00,251.00 337.00,251.00
             337.00,251.00 331.00,252.00 331.00,252.00
             331.00,252.00 331.00,254.00 331.00,254.00
             331.00,254.00 324.99,254.50 324.99,254.50
             324.99,254.50 314.00,254.50 314.00,254.50
             314.00,254.50 286.00,271.00 286.00,271.00
             286.00,271.00 290.00,281.00 290.00,281.00
             290.00,281.00 299.00,278.00 299.00,278.00
             301.61,273.65 308.99,269.43 314.00,269.00
             321.37,256.62 346.15,261.29 356.00,268.00
             358.30,258.32 361.91,255.79 370.00,251.26
             372.17,250.05 374.54,248.41 377.00,248.07
             378.61,247.70 380.88,248.07 382.58,248.07
             393.82,248.71 404.22,253.39 408.59,264.58
             412.23,273.89 412.10,284.60 406.20,293.00
             398.63,303.79 394.03,298.52 394.00,312.00
             394.00,312.00 394.00,352.00 394.00,352.00
             393.98,363.33 392.10,360.87 378.83,369.96
             376.49,371.57 371.83,375.15 369.00,374.84
             365.98,374.51 360.23,369.21 358.00,367.00
             358.00,367.00 369.00,362.00 369.00,362.00
             373.76,353.99 381.78,356.73 382.00,345.00
             382.00,345.00 382.00,318.00 382.00,318.00
             382.00,315.21 382.42,308.49 380.98,306.31
             379.35,303.85 374.74,303.50 372.00,303.00
             372.00,303.00 372.00,333.00 372.00,333.00
             372.00,335.23 372.24,338.56 371.01,340.47
             369.68,342.53 355.04,351.22 352.00,353.01
             352.00,353.01 294.06,389.32 294.06,389.32
             288.61,393.05 290.10,396.63 285.53,404.00
             280.29,412.45 270.74,416.38 261.00,415.96
             251.52,415.55 242.43,409.20 237.90,401.00
             235.05,395.82 235.61,393.10 233.42,390.61
             229.74,386.43 222.52,384.92 219.00,379.00
             214.24,378.53 211.96,376.24 208.00,373.81
             202.12,370.20 186.07,362.12 183.00,357.00
             177.40,356.45 168.30,349.59 162.99,346.50
             161.16,345.44 157.12,343.08 155.99,341.39
             154.83,339.66 155.01,337.01 155.00,335.00
             155.00,335.00 155.00,321.00 155.00,321.00
             155.00,321.00 154.00,302.00 154.00,302.00
             154.00,302.00 145.00,304.00 145.00,304.00
             145.00,304.00 145.00,344.00 145.00,344.00
             145.02,346.30 144.90,348.82 146.02,350.91
             148.21,354.97 162.44,363.44 167.00,366.00
             167.00,366.00 158.00,375.00 158.00,375.00
             150.40,372.30 146.63,369.27 140.00,365.05
             137.84,363.68 134.34,361.85 133.02,359.67
             131.99,357.96 132.04,355.92 132.00,354.00
             132.00,354.00 132.00,311.00 132.00,311.00
             131.99,308.08 132.32,305.07 130.49,302.60
             126.78,297.58 121.07,297.33 120.00,290.00
             120.00,290.00 118.00,290.00 118.00,290.00
             117.34,283.42 112.58,277.19 117.48,265.00
             122.73,251.92 133.21,248.50 146.08,248.17
             148.72,248.12 151.41,247.62 154.01,248.17
             158.36,249.05 162.34,251.62 166.00,254.00
             166.00,254.00 171.00,268.00 171.00,268.00
             171.00,268.00 183.00,262.90 183.00,262.90
             192.99,259.71 206.67,259.22 213.00,269.00
             219.16,269.52 229.81,277.21 235.00,281.00
             235.00,281.00 239.00,271.00 239.00,271.00
             239.00,271.00 211.00,254.52 211.00,254.52
             207.38,253.25 205.48,254.63 202.00,254.52
             195.93,254.71 191.46,252.97 187.00,249.00
             187.00,249.00 193.00,245.00 193.00,245.00
             193.00,245.00 196.00,243.00 196.00,243.00
             198.19,242.37 198.59,241.97 200.28,240.34
             201.27,239.38 202.54,238.06 203.28,236.91
             209.02,227.88 196.79,223.46 194.60,217.91
             193.70,215.64 193.98,206.92 194.00,204.00
             194.00,204.00 194.00,175.00 194.00,175.00
             193.99,172.27 194.33,168.68 192.40,166.51
             190.34,164.18 186.84,164.27 182.32,160.56
             173.78,153.52 169.89,147.11 170.00,136.00
             170.04,132.13 169.83,128.61 173.00,126.00 Z
           M 208.00,149.00
           C 209.55,146.06 211.95,142.18 212.44,139.00
             213.06,136.78 212.90,134.17 212.44,132.00
             211.59,129.58 210.67,128.07 208.86,126.31
             194.68,112.55 175.95,135.88 189.12,146.95
             191.37,148.83 194.09,150.21 197.00,150.66
             201.24,151.31 204.01,149.35 208.00,149.00 Z
           M 328.00,122.63
           C 322.15,123.12 317.22,125.54 314.45,131.00
             309.83,140.13 315.82,150.51 326.00,150.95
             344.57,151.76 347.13,125.31 328.00,122.63 Z
           M 307.00,158.00
           C 307.00,158.00 301.00,148.00 301.00,148.00
             297.13,140.31 300.50,137.07 290.00,137.00
             290.00,137.00 235.00,137.00 235.00,137.00
             233.01,137.00 229.19,136.77 227.60,138.02
             225.63,139.57 226.37,142.29 225.03,146.00
             223.49,150.27 220.27,154.05 218.00,158.00
             224.37,162.28 233.41,167.95 238.00,174.00
             243.38,172.28 243.77,169.70 248.00,166.39
             251.98,163.28 258.92,160.89 264.00,161.33
             268.17,161.68 273.54,163.22 276.96,165.63
             280.33,168.01 282.67,171.73 285.98,171.79
             288.48,171.83 291.17,169.15 293.09,167.71
             297.58,164.31 302.12,160.80 307.00,158.00 Z
           M 208.00,165.00
           C 204.63,169.57 205.95,174.71 205.82,180.00
             205.82,180.00 205.82,201.00 205.82,201.00
             206.00,203.49 205.74,209.78 206.60,211.82
             207.55,214.07 209.08,214.78 211.00,216.00
             215.57,212.26 223.24,204.88 229.00,204.00
             229.00,204.00 234.40,197.79 234.40,197.79
             234.40,197.79 235.00,185.00 235.00,185.00
             235.00,185.00 208.00,165.00 208.00,165.00 Z
           M 319.00,165.00
           C 313.38,167.97 306.37,174.00 300.96,178.00
             298.68,179.69 293.36,183.09 292.02,185.32
             290.99,187.05 291.04,189.06 291.00,191.00
             290.87,199.01 291.33,199.52 297.99,203.74
             300.76,205.50 301.67,206.60 305.00,207.00
             305.00,207.00 306.00,210.00 306.00,210.00
             306.00,210.00 310.00,213.19 310.00,213.19
             312.65,213.47 316.07,215.58 318.40,213.19
             320.19,211.70 319.98,208.26 320.00,206.00
             320.06,197.45 320.89,171.66 319.00,165.00 Z
           M 261.00,176.38
           C 255.87,177.68 251.12,180.62 249.51,186.00
             246.78,195.11 254.59,204.75 264.00,203.64
             280.93,201.63 281.30,175.66 261.00,176.38 Z
           M 244.00,209.00
           C 237.58,210.34 232.46,215.14 227.00,218.58
             224.80,219.96 221.28,221.80 220.04,224.18
             219.04,226.35 219.98,230.42 220.04,233.00
             219.95,237.02 218.98,239.24 218.00,243.00
             218.00,243.00 239.00,256.67 239.00,256.67
             241.25,258.21 245.58,262.07 248.09,262.19
             251.05,262.33 255.85,259.76 256.90,256.79
             256.90,256.79 256.90,246.00 256.90,246.00
             256.90,246.00 256.90,225.00 256.90,225.00
             256.92,212.56 252.47,220.53 244.00,209.00 Z
           M 284.00,210.10
           C 281.90,210.78 270.43,217.63 269.57,219.41
             268.56,221.51 269.00,239.34 269.00,243.00
             269.00,250.50 266.42,261.04 276.99,261.56
             281.11,261.76 287.40,256.34 291.00,254.05
             294.66,251.73 304.17,246.49 305.86,242.91
             307.36,240.04 305.90,237.28 305.86,234.00
             305.56,229.83 307.24,226.95 305.86,224.32
             304.91,222.43 301.78,220.52 300.00,219.34
             295.86,216.62 288.45,211.00 284.00,210.10 Z
           M 313.00,214.00
           C 313.00,214.00 312.00,214.00 312.00,214.00
             312.00,214.00 313.00,215.00 313.00,215.00
             313.00,215.00 313.00,214.00 313.00,214.00 Z
           M 149.00,290.00
           C 152.12,286.84 155.22,285.59 156.46,280.91
             159.25,270.37 151.03,260.39 140.00,263.80
             129.73,266.98 126.56,280.51 135.19,287.35
             139.61,290.86 143.94,289.55 149.00,290.00 Z
           M 397.00,282.00
           C 396.40,277.22 397.41,272.79 394.17,268.76
             387.33,260.25 374.25,261.51 370.15,272.00
             366.88,280.34 371.86,289.12 381.00,289.89
             389.11,290.58 391.51,286.73 397.00,282.00 Z
           M 217.00,283.00
           C 211.22,282.04 202.75,274.19 197.00,272.79
             193.03,271.82 183.19,275.93 179.00,277.33
             177.19,277.94 173.95,278.89 172.53,280.08
             172.53,280.08 168.00,287.00 168.00,287.00
             168.00,287.00 167.16,293.17 167.16,293.17
             167.16,293.17 168.00,312.00 168.00,312.00
             172.64,312.77 177.03,316.49 180.00,320.00
             180.00,320.00 182.00,319.00 182.00,319.00
             181.26,325.29 178.39,325.05 174.00,329.00
             171.83,325.99 170.54,325.81 167.00,325.00
             167.03,332.83 167.09,333.03 175.00,338.00
             175.00,338.00 178.00,337.00 178.00,337.00
             178.00,337.00 205.00,316.00 205.00,316.00
             205.00,316.00 207.00,317.00 207.00,317.00
             210.27,313.44 223.50,303.52 228.00,303.00
             228.00,303.00 234.00,294.00 234.00,294.00
             227.94,291.38 221.52,287.87 217.00,283.00 Z
           M 343.00,321.00
           C 345.78,320.18 357.57,312.83 358.98,310.61
             360.52,308.18 360.29,296.90 359.51,294.00
             359.51,294.00 356.36,287.00 356.36,287.00
             355.47,284.96 354.90,282.23 353.46,280.59
             351.65,278.55 336.98,273.33 334.00,272.86
             329.19,272.10 322.98,276.21 319.00,278.68
             310.86,283.74 299.50,291.21 291.00,295.00
             291.00,295.00 291.00,298.00 291.00,298.00
             291.00,298.00 333.91,326.05 333.91,326.05
             333.91,326.05 354.00,338.00 354.00,338.00
             359.40,331.68 359.97,334.04 360.00,325.00
             352.49,327.16 348.14,330.19 343.00,321.00 Z
           M 250.00,296.00
           C 253.07,298.09 255.28,300.18 259.00,300.89
             261.67,301.60 264.38,301.56 267.00,300.89
             269.54,299.99 271.50,298.86 273.20,296.79
             286.94,280.03 259.72,264.55 250.57,281.04
             248.92,284.01 248.85,288.50 248.00,292.00
             248.00,292.00 250.00,296.00 250.00,296.00 Z
           M 320.00,333.00
           C 316.72,326.79 299.58,317.54 293.00,313.31
             290.36,311.61 286.25,308.25 283.00,308.81
             280.95,309.15 277.95,311.55 276.00,312.65
             272.31,314.73 265.24,316.89 261.00,316.61
             257.49,316.37 252.03,314.32 249.00,312.53
             245.68,310.59 243.10,307.73 239.00,309.14
             236.14,310.13 227.78,316.38 224.83,318.50
             224.83,318.50 206.00,331.00 206.00,331.00
             206.00,331.00 206.00,333.00 206.00,333.00
             206.00,333.00 247.00,359.00 247.00,359.00
             247.00,359.00 247.00,337.00 247.00,337.00
             247.00,337.00 248.00,322.00 248.00,322.00
             248.00,322.00 252.00,325.00 252.00,325.00
             252.00,325.00 258.00,325.00 258.00,325.00
             258.00,325.00 259.00,344.00 259.00,344.00
             259.00,344.00 258.00,365.00 258.00,365.00
             258.00,365.00 256.98,372.82 256.98,372.82
             256.98,372.82 250.09,381.04 250.09,381.04
             250.09,381.04 249.00,393.00 249.00,393.00
             249.00,393.00 256.00,399.94 256.00,399.94
             256.00,399.94 267.00,399.94 267.00,399.94
             274.67,397.84 278.82,387.99 275.43,381.01
             273.29,376.62 270.00,375.63 268.60,371.96
             267.88,370.10 268.00,367.03 268.00,365.00
             268.00,365.00 268.00,325.00 268.00,325.00
             268.00,325.00 276.97,323.54 276.97,323.54
             279.41,324.62 279.00,329.80 279.00,332.00
             279.00,332.00 279.00,359.00 279.00,359.00
             279.00,359.00 296.00,348.46 296.00,348.46
             296.00,348.46 320.00,333.00 320.00,333.00 Z
           M 237.00,377.00
           C 238.02,374.64 239.69,371.99 238.13,369.52
             236.70,367.24 228.64,362.62 226.00,360.95
             226.00,360.95 205.00,347.00 205.00,347.00
             202.77,345.51 197.41,341.57 195.00,341.26
             192.34,340.90 190.11,342.67 188.00,344.00
             188.00,344.00 188.00,346.00 188.00,346.00
             188.00,346.00 208.00,360.00 208.00,360.00
             208.00,360.00 217.28,365.01 217.28,365.01
             217.28,365.01 237.00,377.00 237.00,377.00 Z
           M 340.00,346.00
           C 330.70,331.82 319.72,351.53 309.00,353.00
             309.00,353.00 286.00,369.00 286.00,369.00
             286.00,369.00 288.00,377.00 288.00,377.00
             292.42,375.59 299.44,371.96 302.00,368.00
             302.00,368.00 304.00,369.00 304.00,369.00
             304.00,369.00 309.00,366.00 309.00,366.00
             311.64,363.02 316.01,359.62 320.00,359.00
             322.66,356.01 323.86,354.29 328.00,354.00
             331.60,350.08 334.89,347.63 340.00,346.00 Z" />
</svg>
