<?xml version="1.0" encoding="UTF-8" standalone="no"?>
<!DOCTYPE svg PUBLIC "-//W3C//DTD SVG 20010904//EN"
              "http://www.w3.org/TR/2001/REC-SVG-20010904/DTD/svg10.dtd">

<svg xmlns="http://www.w3.org/2000/svg"
     width="135.486mm" height="135.486mm"
     viewBox="0 0 512 512">
  <path id="Selection"
        fill="#34d399"
        d="M 34.00,75.08
           C 34.00,75.08 77.00,75.08 77.00,75.08
             77.00,75.08 158.00,75.08 158.00,75.08
             158.00,75.08 404.00,75.08 404.00,75.08
             404.00,75.08 455.00,75.08 455.00,75.08
             464.37,75.00 478.14,74.47 487.00,76.76
             496.82,79.29 508.35,88.02 511.35,98.00
             512.11,100.50 512.00,103.40 512.00,106.00
             512.00,106.00 512.00,121.00 512.00,121.00
             511.78,138.62 494.32,149.97 478.00,150.00
             478.00,150.00 112.00,150.00 112.00,150.00
             112.00,150.00 34.00,150.00 34.00,150.00
             22.19,149.98 13.71,146.08 6.02,136.91
             3.94,134.44 1.58,131.11 0.65,128.00
             -0.11,125.50 0.00,122.60 0.00,120.00
             0.00,120.00 0.00,104.00 0.00,104.00
             0.18,90.93 12.12,80.54 24.00,77.04
             24.00,77.04 34.00,75.08 34.00,75.08 Z" />
</svg>
